<mxfile host="app.diagrams.net" agent="Mozilla/5.0 (Windows NT 10.0; Win64; x64) AppleWebKit/537.36 (KHTML, like Gecko) Chrome/133.0.0.0 Safari/537.36" version="26.1.0">
  <diagram name="Seite-1" id="o306x7-LtSKb-cJ-3L-s">
    <mxGraphModel dx="7390" dy="5290" grid="1" gridSize="10" guides="1" tooltips="1" connect="1" arrows="1" fold="1" page="1" pageScale="1" pageWidth="827" pageHeight="1169" math="0" shadow="0">
      <root>
        <mxCell id="0" />
        <mxCell id="1" parent="0" />
        <mxCell id="MonPNRp5Eh57AKIQyet2-1" value="" style="rounded=0;whiteSpace=wrap;html=1;fillColor=#60a917;fontColor=#ffffff;strokeColor=#2D7600;" parent="1" vertex="1">
          <mxGeometry x="80" y="80" width="700" height="850" as="geometry" />
        </mxCell>
        <mxCell id="MonPNRp5Eh57AKIQyet2-7" value="" style="ellipse;whiteSpace=wrap;html=1;aspect=fixed;fillColor=#dae8fc;strokeColor=#6c8ebf;opacity=50;" parent="1" vertex="1">
          <mxGeometry x="-500" y="360" width="1120" height="1120" as="geometry" />
        </mxCell>
        <mxCell id="MonPNRp5Eh57AKIQyet2-2" value="" style="rounded=0;whiteSpace=wrap;html=1;" parent="1" vertex="1">
          <mxGeometry x="690" y="210" width="60" height="130" as="geometry" />
        </mxCell>
        <mxCell id="MonPNRp5Eh57AKIQyet2-3" value="" style="ellipse;whiteSpace=wrap;html=1;aspect=fixed;" parent="1" vertex="1">
          <mxGeometry x="80" y="80" width="30" height="30" as="geometry" />
        </mxCell>
        <mxCell id="MonPNRp5Eh57AKIQyet2-4" value="" style="ellipse;whiteSpace=wrap;html=1;aspect=fixed;" parent="1" vertex="1">
          <mxGeometry x="80" y="900" width="30" height="30" as="geometry" />
        </mxCell>
        <mxCell id="MonPNRp5Eh57AKIQyet2-11" value="" style="ellipse;whiteSpace=wrap;html=1;aspect=fixed;fillColor=#dae8fc;strokeColor=#6c8ebf;opacity=50;" parent="1" vertex="1">
          <mxGeometry x="-500" y="-500" width="1200" height="1200" as="geometry" />
        </mxCell>
        <mxCell id="MonPNRp5Eh57AKIQyet2-10" value="" style="whiteSpace=wrap;html=1;aspect=fixed;strokeColor=none;" parent="1" vertex="1">
          <mxGeometry x="70" y="-1480" width="1550" height="1550" as="geometry" />
        </mxCell>
        <mxCell id="MonPNRp5Eh57AKIQyet2-8" value="" style="whiteSpace=wrap;html=1;aspect=fixed;strokeColor=none;" parent="1" vertex="1">
          <mxGeometry x="-1480" y="80" width="1560" height="1560" as="geometry" />
        </mxCell>
        <mxCell id="MonPNRp5Eh57AKIQyet2-12" value="" style="whiteSpace=wrap;html=1;aspect=fixed;strokeColor=none;" parent="1" vertex="1">
          <mxGeometry x="-1480" y="-1480" width="1550" height="1550" as="geometry" />
        </mxCell>
        <mxCell id="6sTEmO09wWY9BEkYlusY-1" value="" style="ellipse;whiteSpace=wrap;html=1;aspect=fixed;fillColor=#dae8fc;strokeColor=#6c8ebf;opacity=50;" vertex="1" parent="1">
          <mxGeometry x="360" y="400" width="930" height="930" as="geometry" />
        </mxCell>
        <mxCell id="MonPNRp5Eh57AKIQyet2-9" value="" style="whiteSpace=wrap;html=1;aspect=fixed;strokeColor=none;" parent="1" vertex="1">
          <mxGeometry x="80" y="930" width="1550" height="1550" as="geometry" />
        </mxCell>
        <mxCell id="6sTEmO09wWY9BEkYlusY-2" value="" style="whiteSpace=wrap;html=1;aspect=fixed;strokeColor=none;" vertex="1" parent="1">
          <mxGeometry x="790" y="-10" width="1550" height="1550" as="geometry" />
        </mxCell>
      </root>
    </mxGraphModel>
  </diagram>
</mxfile>
